<svg width="85" height="92" viewBox="0 0 85 92" fill="none" xmlns="http://www.w3.org/2000/svg">
<path d="M13.4607 20.8765C13.4607 19.0593 14.1241 17.3165 15.305 16.0315C16.4859 14.7466 18.0876 14.0247 19.7576 14.0247H65.9351C67.6051 14.0247 69.2068 14.7466 70.3877 16.0315C71.5686 17.3165 72.232 19.0593 72.232 20.8765V52.8518C72.232 54.6691 71.5686 56.4119 70.3877 57.6968C69.2068 58.9818 67.6051 59.7037 65.9351 59.7037H42.8464V55.1358H65.9351C66.4918 55.1358 67.0257 54.8952 67.4193 54.4668C67.8129 54.0385 68.0341 53.4576 68.0341 52.8518V20.8765C68.0341 20.2708 67.8129 19.6899 67.4193 19.2615C67.0257 18.8332 66.4918 18.5926 65.9351 18.5926H19.7576C19.201 18.5926 18.6671 18.8332 18.2734 19.2615C17.8798 19.6899 17.6587 20.2708 17.6587 20.8765V27.7284H13.4607V20.8765ZM42.8464 68.8395H74.331C74.8877 68.8395 75.4216 68.5989 75.8152 68.1705C76.2088 67.7422 76.43 67.1613 76.43 66.5555C76.43 65.9498 76.2088 65.3689 75.8152 64.9405C75.4216 64.5122 74.8877 64.2716 74.331 64.2716H42.8464V68.8395ZM21.8566 68.8395C21.2999 68.8395 20.766 69.0801 20.3724 69.5084C19.9788 69.9368 19.7576 70.5177 19.7576 71.1234C19.7576 71.7292 19.9788 72.3101 20.3724 72.7384C20.766 73.1668 21.2999 73.4074 21.8566 73.4074H26.0546C26.6112 73.4074 27.1451 73.1668 27.5388 72.7384C27.9324 72.3101 28.1535 71.7292 28.1535 71.1234C28.1535 70.5177 27.9324 69.9368 27.5388 69.5084C27.1451 69.0801 26.6112 68.8395 26.0546 68.8395H21.8566ZM9.26276 39.1481C9.26276 37.3309 9.92618 35.5881 11.1071 34.3032C12.288 33.0182 13.8896 32.2963 15.5597 32.2963H32.3515C34.0215 32.2963 35.6232 33.0182 36.8041 34.3032C37.985 35.5881 38.6484 37.3309 38.6484 39.1481V75.6913C38.6484 77.5086 37.985 79.2514 36.8041 80.5363C35.6232 81.8213 34.0215 82.5432 32.3515 82.5432H15.5597C13.8896 82.5432 12.288 81.8213 11.1071 80.5363C9.92618 79.2514 9.26276 77.5086 9.26276 75.6913V39.1481ZM15.5597 36.8642C15.003 36.8642 14.4691 37.1048 14.0755 37.5331C13.6818 37.9615 13.4607 38.5424 13.4607 39.1481V75.6913C13.4607 76.2971 13.6818 76.878 14.0755 77.3063C14.4691 77.7347 15.003 77.9753 15.5597 77.9753H32.3515C32.9082 77.9753 33.4421 77.7347 33.8357 77.3063C34.2293 76.878 34.4505 76.2971 34.4505 75.6913V39.1481C34.4505 38.5424 34.2293 37.9615 33.8357 37.5331C33.4421 37.1048 32.9082 36.8642 32.3515 36.8642H15.5597Z" fill="#FFF8F8"/>
<path d="M51.7304 22.1074L50.9278 23.9399C50.5123 23.9653 50.0989 24.0176 49.6903 24.0966L48.4625 22.5112L47.1392 22.9611L47.1326 24.9782C46.572 25.2663 46.0348 25.6147 45.5274 26.0213L43.6571 25.1792L42.6996 26.1977L43.6571 28.0137C43.3516 28.4491 43.0832 28.9094 42.8546 29.3897L40.8012 29.4457L40.3843 30.7789L42.0421 32.0001C41.9628 32.4947 41.924 32.9945 41.9218 33.4948L40.0811 34.4275L40.2739 35.8118L42.2943 36.2073C42.415 36.6302 42.5648 37.0442 42.7425 37.4465L41.411 39.0995L42.1542 40.2826L44.224 39.7982C44.355 39.9523 44.4907 40.1023 44.631 40.248C44.9241 40.5511 45.2362 40.8351 45.5655 41.0983L45.1634 43.1715L46.373 43.8702L47.9533 42.4942C48.4056 42.6759 48.8711 42.8225 49.3459 42.9325L49.8618 44.9578L51.2542 45.0716L52.0914 43.1615C52.6699 43.1267 53.2465 43.0402 53.8135 42.9011L55.1434 44.442L56.4403 43.9229L56.4023 43.1417L53.3751 40.8462C52.4938 41.069 51.5799 41.1287 50.6823 41.0274C49.0078 40.8386 47.3985 40.0824 46.1356 38.7764C43.2491 35.7909 43.3316 31.0418 46.3169 28.1554C47.7629 26.7572 49.6229 26.0479 51.4849 26.0279C53.4672 26.0064 55.4513 26.7659 56.9397 28.3053C59.362 30.8108 59.6922 34.5799 57.9712 37.4333L59.6572 38.7122C59.8668 38.3834 60.0561 38.0422 60.2241 37.6904L62.2625 37.6344L62.6794 36.3012L61.0332 35.0884C61.1126 34.5896 61.1528 34.0855 61.1534 33.5805L62.9827 32.651L62.79 31.2667L60.7713 30.8712C60.6014 30.2865 60.3763 29.7192 60.0989 29.1772L61.3018 27.5111L60.4976 26.369L58.5169 26.9441C58.492 26.9177 58.4678 26.891 58.4426 26.865C58.1309 26.5424 57.7972 26.2418 57.444 25.9652L57.8231 24.0074L56.6133 23.3087L55.1104 24.6173C54.6238 24.4215 54.1241 24.2691 53.6173 24.1558L53.1246 22.2211L51.7304 22.1074ZM48.6636 30.2021C48.1181 30.2084 47.5774 30.3423 47.0815 30.5861L49.4662 32.3956C50.1874 32.9428 50.3919 33.9826 49.8385 34.7126C49.2849 35.4429 48.2219 35.5527 47.4902 34.9978L45.1073 33.1899C44.8633 34.4974 45.3253 35.8827 46.457 36.7413C47.4718 37.511 48.7743 37.6551 49.8963 37.2522L50.1484 37.1614L50.3609 37.323L57.49 42.7316L57.7026 42.8931L57.6844 43.1601C57.5981 44.3493 58.0847 45.5653 59.1 46.3356C60.2317 47.1941 61.6917 47.2653 62.8853 46.6784L60.5024 44.8706C59.7708 44.3156 59.5911 43.2619 60.1449 42.5322C60.6986 41.8023 61.7553 41.7198 62.4767 42.2668L64.8596 44.0747C65.103 42.7677 64.6429 41.3817 63.5116 40.5234C62.4931 39.7504 61.2009 39.5972 60.0855 39.9943L59.835 40.0833L59.6225 39.9218L52.4934 34.5132L52.2808 34.3517L52.299 34.0865C52.3807 32.9059 51.885 31.7032 50.8669 30.9306C50.2054 30.4287 49.4313 30.1934 48.6636 30.2022L48.6636 30.2021ZM50.9608 34.9614L59.6027 41.5186L59.0077 42.3047L50.3643 35.7458L50.9608 34.9614Z" fill="white"/>
</svg>
