<svg width="35" height="35" viewBox="0 0 35 35" fill="none" xmlns="http://www.w3.org/2000/svg">
<path d="M23.3333 13.125C23.3333 13.5118 23.1797 13.8827 22.9062 14.1562C22.6327 14.4297 22.2618 14.5833 21.875 14.5833C21.4882 14.5833 21.1173 14.4297 20.8438 14.1562C20.5703 13.8827 20.4167 13.5118 20.4167 13.125C20.4167 12.7382 20.5703 12.3673 20.8438 12.0938C21.1173 11.8203 21.4882 11.6667 21.875 11.6667C22.2618 11.6667 22.6327 11.8203 22.9062 12.0938C23.1797 12.3673 23.3333 12.7382 23.3333 13.125ZM14.5833 13.125C14.5833 13.5118 14.4297 13.8827 14.1562 14.1562C13.8827 14.4297 13.5118 14.5833 13.125 14.5833C12.7382 14.5833 12.3673 14.4297 12.0938 14.1562C11.8203 13.8827 11.6667 13.5118 11.6667 13.125C11.6667 12.7382 11.8203 12.3673 12.0938 12.0938C12.3673 11.8203 12.7382 11.6667 13.125 11.6667C13.5118 11.6667 13.8827 11.8203 14.1562 12.0938C14.4297 12.3673 14.5833 12.7382 14.5833 13.125Z" fill="black"/>
<path fill-rule="evenodd" clip-rule="evenodd" d="M17.5 4.01041C16.6298 4.01041 15.7952 4.35611 15.1798 4.97146C14.5645 5.58682 14.2188 6.42141 14.2188 7.29166V7.66207C14.8283 7.65624 15.4846 7.65624 16.1948 7.65624H18.8052C19.5154 7.65624 20.1731 7.65624 20.7813 7.66207V7.29166C20.7813 6.42141 20.4355 5.58682 19.8202 4.97146C19.2048 4.35611 18.3702 4.01041 17.5 4.01041ZM22.9688 7.73936V7.29166C22.9688 5.84125 22.3926 4.45026 21.367 3.42467C20.3414 2.39908 18.9504 1.82291 17.5 1.82291C16.0496 1.82291 14.6586 2.39908 13.633 3.42467C12.6074 4.45026 12.0313 5.84125 12.0313 7.29166V7.73936C11.8344 7.75395 11.6448 7.76999 11.461 7.79041C10.1806 7.92895 9.10875 8.2177 8.15792 8.86957C7.83069 9.09364 7.52331 9.3454 7.23917 9.62207C6.41375 10.4271 5.91938 11.4217 5.53292 12.6496C5.15813 13.8439 4.85479 15.3606 4.47271 17.2667L4.445 17.4052C3.89667 20.1512 3.46354 22.3154 3.33959 24.0392C3.21125 25.8008 3.38917 27.281 4.22334 28.5658C4.50188 28.9946 4.82709 29.3898 5.19167 29.7471C6.28834 30.8175 7.70584 31.2812 9.45729 31.5029C11.1723 31.7187 13.3802 31.7187 16.1802 31.7187H18.8198C21.6213 31.7187 23.8277 31.7187 25.5427 31.5029C27.2942 31.2812 28.7131 30.8175 29.8083 29.7471C30.1737 29.3902 30.4984 28.9941 30.7767 28.5658C31.6108 27.2825 31.7888 25.8008 31.6619 24.0392C31.5365 22.3154 31.1048 20.1512 30.5535 17.4052L30.5273 17.2667C30.1467 15.3606 29.8419 13.8439 29.4671 12.6496C29.0806 11.4217 28.5863 10.4271 27.7608 9.62207C27.4767 9.34539 27.1693 9.09363 26.8421 8.86957C25.8913 8.2177 24.8194 7.92895 23.539 7.79041C23.3497 7.77014 23.1601 7.75312 22.9702 7.73936H22.9688ZM11.6958 9.96478C10.6065 10.0814 9.93417 10.3046 9.39459 10.6735C9.17067 10.8273 8.96038 11 8.76604 11.1898C8.29792 11.6462 7.94938 12.2617 7.61979 13.3058C7.28438 14.3748 7.00146 15.7748 6.60625 17.7567C6.0375 20.5975 5.63354 22.6275 5.52125 24.1967C5.40896 25.7454 5.59709 26.6656 6.05792 27.3744C6.2475 27.666 6.47063 27.9387 6.72 28.1823C7.32521 28.7729 8.19 29.1375 9.73146 29.3329C11.2919 29.5298 13.3627 29.5312 16.259 29.5312H18.7425C21.6388 29.5312 23.7067 29.5298 25.2685 29.3329C26.81 29.1375 27.6748 28.7729 28.28 28.1823C28.5298 27.9382 28.7518 27.6672 28.9421 27.3744C29.4029 26.6656 29.591 25.7454 29.4802 24.1952C29.3665 22.626 28.9625 20.5975 28.3952 17.7567C27.9985 15.7748 27.7171 14.3733 27.3802 13.3058C27.0521 12.2617 26.7021 11.6462 26.234 11.1898C26.0401 11 25.8303 10.8273 25.6069 10.6735C25.0673 10.3046 24.3935 10.0829 23.3042 9.96478C22.1915 9.8452 20.7623 9.84374 18.741 9.84374H16.2604C14.2392 9.84374 12.81 9.8452 11.6958 9.96478Z" fill="black"/>
</svg>
